<svg data-v-fde0c5aa="" xmlns="http://www.w3.org/2000/svg" viewBox="0 0 300 300" class="iconLeftSlogan"><!----><defs data-v-fde0c5aa=""><!----></defs><rect data-v-fde0c5aa="" fill="#EBFBFA" x="0" y="0" width="300px" height="300px" class="logo-background-square"></rect><defs data-v-fde0c5aa=""><!----></defs><g data-v-fde0c5aa="" id="ca70e0ec-b5a7-445a-8677-38bcb89bbf0f" fill="#08403F" transform="matrix(1.2639185190200806,0,0,1.2639185190200806,89.81337837203534,126.9563610822482)"><path d="M1.37 13.65L2.59 13.65L2.59 10.30L3.79 10.30C6.31 10.30 7.35 9.09 7.35 7.25C7.35 5.63 6.45 4.40 3.99 4.40L1.37 4.40ZM3.91 5.43C5.42 5.43 6.03 6.08 6.03 7.35C6.03 8.69 5.29 9.27 3.78 9.27L2.59 9.27L2.59 5.43ZM13.20 13.65L14.32 13.65L14.32 9.00C14.32 7.63 13.47 7.03 12.38 7.03C10.96 7.03 10.33 7.92 10.11 8.40L10.11 3.60L8.99 3.60L8.99 13.65L10.11 13.65L10.11 10.22C10.23 9.65 10.75 7.99 12.19 7.99C12.87 7.99 13.20 8.36 13.20 9.32ZM19.03 13.85C21.11 13.85 21.99 12.32 21.99 10.33C21.99 8.25 21 7.03 19.03 7.03C16.98 7.03 16.03 8.44 16.03 10.33C16.03 12.47 16.91 13.85 19.03 13.85ZM19.03 12.92C17.86 12.92 17.23 12.08 17.23 10.47C17.23 8.88 17.86 7.95 19.03 7.95C20.17 7.95 20.79 8.85 20.79 10.47C20.79 11.96 20.17 12.92 19.03 12.92ZM23.76 13.65L24.88 13.65L24.88 10.22C25.00 9.65 25.52 7.99 26.96 7.99C27.64 7.99 27.97 8.36 27.97 9.32L27.97 13.65L29.09 13.65L29.09 9.00C29.09 7.63 28.24 7.03 27.15 7.03C25.63 7.03 25.03 8.06 24.84 8.50L24.84 7.22L23.76 7.22ZM36.37 10.61L36.37 9.91C36.37 7.95 35.46 7.03 33.77 7.03C31.53 7.03 30.80 8.75 30.80 10.47C30.80 12.78 31.89 13.85 33.80 13.85C35.21 13.85 36.05 13.16 36.37 12.01L35.39 11.82C35.21 12.40 34.66 12.92 33.82 12.92C32.35 12.92 32.02 11.80 32.00 10.61ZM33.74 7.95C34.75 7.95 35.21 8.61 35.21 9.46L35.21 9.72L32.05 9.72C32.21 8.50 32.84 7.95 33.74 7.95ZM41.76 13.65L47.26 13.65L47.26 12.60L42.98 12.60L42.98 4.40L41.76 4.40ZM51.16 13.85C53.24 13.85 54.12 12.32 54.12 10.33C54.12 8.25 53.13 7.03 51.16 7.03C49.11 7.03 48.16 8.44 48.16 10.33C48.16 12.47 49.04 13.85 51.16 13.85ZM51.16 12.92C49.99 12.92 49.36 12.08 49.36 10.47C49.36 8.88 49.99 7.95 51.16 7.95C52.30 7.95 52.92 8.85 52.92 10.47C52.92 11.96 52.30 12.92 51.16 12.92ZM59.84 11.82C59.70 12.43 59.16 12.92 58.30 12.92C57.40 12.92 56.70 12.24 56.70 10.44C56.70 9.17 57.08 7.95 58.37 7.95C59.16 7.95 59.74 8.22 59.67 9.24L60.79 9.04C60.93 7.73 59.88 7.03 58.37 7.03C56.85 7.03 55.50 7.87 55.50 10.42C55.50 12.57 56.48 13.85 58.28 13.85C59.74 13.85 60.51 13.13 60.83 12.01ZM66.36 13.65L67.80 13.65L64.93 10.12L67.84 7.22L66.40 7.22L63.90 9.72L63.62 9.72L63.62 3.60L62.50 3.60L62.50 13.65L63.62 13.65L63.62 10.61L63.92 10.61ZM74.12 10.61L74.12 9.91C74.12 7.95 73.21 7.03 71.51 7.03C69.27 7.03 68.54 8.75 68.54 10.47C68.54 12.78 69.64 13.85 71.54 13.85C72.95 13.85 73.79 13.16 74.12 12.01L73.14 11.82C72.95 12.40 72.41 12.92 71.57 12.92C70.10 12.92 69.76 11.80 69.75 10.61ZM71.48 7.95C72.49 7.95 72.95 8.61 72.95 9.46L72.95 9.72L69.79 9.72C69.96 8.50 70.59 7.95 71.48 7.95ZM75.89 13.65L77.01 13.65L77.01 10.37C77.18 9.41 77.64 8.08 78.60 8.08C79.00 8.08 79.24 8.48 79.24 8.48L79.86 7.60C79.86 7.60 79.53 7.03 78.81 7.03C77.78 7.03 77.20 7.85 76.97 8.47L76.97 7.22L75.89 7.22ZM84.39 13.65L85.54 13.65L85.54 7.46C85.54 6.94 85.51 6.23 85.48 5.80C85.64 6.33 85.83 6.97 85.99 7.35L88.51 13.65L89.53 13.65L91.95 7.42L92.58 5.71C92.55 6.15 92.53 6.94 92.53 7.50L92.53 13.65L93.67 13.65L93.67 4.40L91.98 4.40L89.39 11.05C89.24 11.41 89.11 11.76 89.01 12.04C88.93 11.76 88.80 11.40 88.66 11.05L85.99 4.40L84.39 4.40ZM101.21 13.75L101.43 12.77C100.58 12.92 100.63 12.42 100.63 11.91L100.63 9.37C100.63 7.74 99.96 7.03 98.31 7.03C96.45 7.03 95.59 7.81 95.75 9.04L96.85 9.24C96.78 8.29 97.36 7.95 98.22 7.95C99.22 7.95 99.51 8.41 99.51 9.52L99.51 9.88C97.09 9.90 95.52 10.64 95.52 12.11C95.52 13.29 96.52 13.85 97.55 13.85C98.56 13.85 99.32 13.29 99.62 12.71C99.67 13.30 99.99 13.90 101.21 13.75ZM99.51 11.42C99.46 12.25 98.62 12.92 97.76 12.92C97.10 12.92 96.73 12.57 96.73 12.03C96.73 11.20 97.54 10.75 99.51 10.74ZM102.87 16.84L103.99 16.84L103.99 12.96C104.37 13.50 105.06 13.85 105.87 13.85C107.74 13.85 108.71 12.24 108.71 10.23C108.71 8.62 108.12 7.03 106.12 7.03C105.13 7.03 104.38 7.49 103.95 8.15L103.95 7.22L102.87 7.22ZM105.77 12.92C104.41 12.92 103.99 11.59 103.99 10.50C103.99 9.39 104.40 7.95 105.88 7.95C107.16 7.95 107.51 8.89 107.51 10.32C107.51 11.63 107.21 12.92 105.77 12.92ZM110.47 16.84L111.59 16.84L111.59 12.96C111.97 13.50 112.66 13.85 113.47 13.85C115.35 13.85 116.31 12.24 116.31 10.23C116.31 8.62 115.72 7.03 113.72 7.03C112.73 7.03 111.99 7.49 111.55 8.15L111.55 7.22L110.47 7.22ZM113.37 12.92C112.01 12.92 111.59 11.59 111.59 10.50C111.59 9.39 112.00 7.95 113.48 7.95C114.76 7.95 115.11 8.89 115.11 10.32C115.11 11.63 114.81 12.92 113.37 12.92ZM117.87 5.00C117.87 5.43 118.19 5.75 118.62 5.75C119.04 5.75 119.38 5.43 119.38 5.00C119.38 4.58 119.04 4.24 118.62 4.24C118.19 4.24 117.87 4.58 117.87 5.00ZM118.08 13.65L119.20 13.65L119.20 7.22L118.08 7.22ZM121.35 13.65L122.47 13.65L122.47 10.22C122.60 9.65 123.12 7.99 124.56 7.99C125.23 7.99 125.57 8.36 125.57 9.32L125.57 13.65L126.69 13.65L126.69 9.00C126.69 7.63 125.83 7.03 124.74 7.03C123.23 7.03 122.63 8.06 122.43 8.50L122.43 7.22L121.35 7.22ZM128.80 9.48C128.80 10.15 128.98 10.70 129.33 11.09C128.81 11.45 128.48 11.87 128.48 12.52C128.48 13.29 128.95 13.58 129.50 13.78C129.11 14.04 128.48 14.56 128.48 15.37C128.48 16.76 130.30 17.04 131.46 17.04C133.20 17.04 134.55 16.41 134.55 14.88C134.55 13.27 133.03 13.09 131.66 13.01C130.52 12.94 129.49 12.92 129.49 12.25C129.49 11.96 129.67 11.75 129.95 11.55C130.33 11.73 130.79 11.83 131.33 11.83C132.96 11.83 133.95 10.98 133.95 9.42C133.95 8.97 133.87 8.58 133.70 8.25C134.34 7.94 134.65 7.43 134.65 6.80C134.65 6.66 134.64 6.51 134.60 6.34L133.63 6.20L133.63 6.69C133.63 7.04 133.53 7.39 133.27 7.67C132.82 7.25 132.19 7.03 131.39 7.03C129.70 7.03 128.80 8.01 128.80 9.48ZM131.35 10.98C130.38 10.98 130.00 10.42 130.00 9.45C130.00 8.46 130.41 7.88 131.38 7.88C132.33 7.88 132.75 8.44 132.75 9.42C132.75 10.42 132.33 10.98 131.35 10.98ZM131.50 14.06C132.59 14.13 133.50 14.28 133.50 15.05C133.50 15.85 132.57 16.14 131.45 16.14C130.61 16.14 129.49 15.97 129.49 15.16C129.49 14.60 129.99 14.24 130.44 13.99C130.84 14.03 131.04 14.03 131.50 14.06Z"></path></g><defs data-v-fde0c5aa=""><linearGradient data-v-fde0c5aa="" gradientTransform="rotate(25)" id="9aa10e56-1e04-4284-b504-4cf1149aba7c" x1="0%" y1="0%" x2="100%" y2="0%"><stop data-v-fde0c5aa="" offset="0%" stop-color="#41E296" stop-opacity="1"></stop><stop data-v-fde0c5aa="" offset="100%" stop-color="#00C4EE" stop-opacity="1"></stop></linearGradient></defs><g data-v-fde0c5aa="" id="b95f1f30-1567-4ad5-be74-d0ec1df85bc2" stroke="none" fill="url(#9aa10e56-1e04-4284-b504-4cf1149aba7c)" transform="matrix(1.2044848203659058,0,0,1.2044848203659058,40.001427816952024,130.728243433211)"><path d="M6.152 1a5.158 5.158 0 0 1 4.798 7.036l-.152.345-4.646 8.585-4.639-8.571-.155-.351A5.197 5.197 0 0 1 1 6.152 5.158 5.158 0 0 1 6.152 1m0-1A6.152 6.152 0 0 0 .429 8.412l.187.424 5.537 10.232 5.544-10.246.168-.382a6.13 6.13 0 0 0 .44-2.287A6.153 6.153 0 0 0 6.152 0z"></path><path d="M6.152 4.374c.949 0 1.722.772 1.722 1.722s-.773 1.722-1.722 1.722S4.43 7.046 4.43 6.096s.772-1.722 1.722-1.722m0-1a2.722 2.722 0 1 0 0 5.445 2.722 2.722 0 0 0 0-5.445zM25.848 13.933a5.158 5.158 0 0 1 4.798 7.036l-.152.345-4.646 8.585-4.639-8.571-.155-.35a5.156 5.156 0 0 1-.358-1.892 5.158 5.158 0 0 1 5.152-5.153m0-1a6.152 6.152 0 0 0-5.723 8.412l.187.424L25.848 32l5.544-10.246.168-.382a6.13 6.13 0 0 0 .44-2.287 6.152 6.152 0 0 0-6.152-6.152z"></path><path d="M25.848 17.307c.949 0 1.722.772 1.722 1.722s-.772 1.722-1.722 1.722-1.722-.772-1.722-1.722.773-1.722 1.722-1.722m0-1a2.722 2.722 0 1 0 0 5.445 2.722 2.722 0 0 0 0-5.445zM22.812 25.75h-8.257V13.221H8.874v-1h6.681V24.75h7.257z"></path></g><defs data-v-fde0c5aa=""><!----></defs><g data-v-fde0c5aa="" id="68a5c213-32f1-4b3a-9f9f-bb2ebaf5a87f" fill="#08403F" transform="matrix(0.8926189541816711,0,0,0.8926189541816711,91.08078484604081,155.9049374135889)"><path d="M0.52 3.49C0.52 3.72 0.63 3.74 0.80 3.74L1.41 3.74C1.47 3.74 1.54 4.79 1.54 5.71C1.54 5.80 1.60 8.27 1.60 9.83L1.60 11.17C1.60 11.84 1.58 12.18 1.53 12.18L0.94 12.18C0.71 12.18 0.64 12.19 0.64 12.39C0.64 12.63 0.66 12.68 0.85 12.68C1.06 12.68 1.90 12.64 2.32 12.64C2.74 12.64 3.68 12.68 4.00 12.68C4.17 12.68 4.20 12.61 4.20 12.40C4.20 12.24 4.17 12.18 4.00 12.18L2.87 12.18C2.81 12.18 2.83 10.16 2.79 8.33C2.79 8.08 2.77 8.09 2.97 8.09L5.39 8.09C6.09 8.09 6.12 8.19 6.12 8.30L6.12 9.16C6.12 9.28 6.30 9.28 6.41 9.28C6.51 9.28 6.64 9.28 6.64 9.17C6.64 8.99 6.61 8.33 6.61 7.83C6.61 7.32 6.64 6.82 6.64 6.69C6.64 6.58 6.52 6.58 6.40 6.58C6.23 6.58 6.12 6.58 6.12 6.71L6.12 7.45C6.12 7.62 5.67 7.63 5.39 7.63L2.97 7.63C2.76 7.63 2.79 7.66 2.79 7.45C2.77 7.13 2.76 6.15 2.76 5.26C2.76 4.52 2.77 3.71 2.84 3.71C4.24 3.71 6.43 3.75 6.72 3.79C6.72 3.96 6.68 4.82 6.68 4.89C6.68 5.04 6.75 5.10 6.93 5.10C7.13 5.10 7.20 5.08 7.20 4.94C7.20 3.85 7.25 3.36 7.25 3.09C7.25 2.93 7.17 2.90 6.97 2.90C6.85 2.90 6.78 2.90 6.75 3.11C6.73 3.25 6.80 3.25 5.85 3.25C5.25 3.25 2.97 3.29 2.23 3.29C1.74 3.29 0.80 3.25 0.70 3.25C0.57 3.25 0.52 3.30 0.52 3.49ZM15.08 12.39C15.08 12.63 15.12 12.68 15.32 12.68C15.64 12.68 16.39 12.64 17.11 12.64C17.77 12.64 18.56 12.68 18.79 12.68C18.96 12.68 18.98 12.61 18.98 12.40C18.98 12.24 18.96 12.18 18.79 12.18L17.82 12.18C17.72 12.18 17.70 9.55 17.70 7.76L17.70 5.87C17.70 5.14 17.72 3.70 17.82 3.70L18.73 3.70C18.96 3.70 18.98 3.68 18.98 3.49C18.98 3.25 18.96 3.19 18.79 3.19C18.47 3.19 17.79 3.23 17.14 3.23C16.32 3.23 15.61 3.19 15.39 3.19C15.20 3.19 15.13 3.21 15.13 3.44C15.13 3.68 15.22 3.70 15.39 3.70L16.31 3.70C16.35 3.70 16.42 4.79 16.42 5.71L16.42 7.08C16.42 8.92 16.41 12.18 16.30 12.18L15.37 12.18C15.15 12.18 15.08 12.19 15.08 12.39ZM26.88 12.39C26.88 12.63 26.89 12.68 27.09 12.68C27.27 12.68 27.65 12.64 28.27 12.64C28.90 12.64 29.46 12.68 29.78 12.68C29.95 12.68 29.95 12.61 29.95 12.40C29.95 12.24 29.95 12.18 29.78 12.18L28.57 12.18C28.53 12.18 28.52 11.54 28.52 10.79C28.52 9.46 28.53 7.48 28.53 5.99C28.53 5.25 28.53 4.84 28.55 4.28C28.55 4.02 28.62 4.14 28.74 4.28L35.63 12.66C35.71 12.75 35.80 12.89 35.91 12.89C36.02 12.89 36.09 12.77 36.09 12.54C36.09 12.39 36.26 6.65 36.27 4.48C36.27 4.06 36.30 3.70 36.33 3.70L36.96 3.70C37.18 3.70 37.24 3.68 37.24 3.49C37.24 3.25 37.24 3.19 37.04 3.19C36.85 3.19 36.41 3.23 35.85 3.23C35.24 3.23 34.44 3.19 34.34 3.19C34.17 3.19 34.17 3.26 34.17 3.47C34.17 3.64 34.17 3.70 34.34 3.70L35.64 3.70C35.66 3.70 35.66 4.33 35.66 4.44C35.66 5.85 35.69 8.33 35.69 9.70L35.69 10.29C35.69 10.57 35.67 10.65 35.45 10.37L29.76 3.39C29.65 3.25 29.62 3.19 29.46 3.19C29.37 3.19 28.99 3.23 28.69 3.23C28.39 3.23 27.31 3.19 27.12 3.19C26.95 3.19 26.92 3.26 26.92 3.47C26.92 3.64 26.95 3.70 27.12 3.70L28.03 3.70C28.03 4.17 27.99 8.53 27.92 10.79C27.89 11.69 27.90 12.18 27.79 12.18L27.15 12.18C26.92 12.18 26.88 12.19 26.88 12.39ZM45.21 12.46C45.21 12.63 45.22 12.70 45.40 12.70C45.56 12.70 46.79 12.64 47.18 12.64C48.03 12.64 48.92 12.70 49.77 12.70C52.39 12.70 54.78 11.07 54.78 7.91C54.78 4.89 52.44 3.07 49.41 3.07C48.85 3.07 47.59 3.23 46.55 3.23C46.07 3.23 45.61 3.22 45.56 3.22C45.37 3.22 45.36 3.32 45.36 3.49C45.36 3.68 45.43 3.70 45.56 3.70L46.52 3.67C46.55 3.67 46.55 4.20 46.55 4.72C46.55 5.91 46.47 12.21 46.38 12.21L45.49 12.21C45.30 12.21 45.21 12.22 45.21 12.46ZM47.78 11.40C47.78 9.46 47.78 7.52 47.80 5.60C47.80 5.03 47.84 3.61 47.88 3.60C48.17 3.53 48.76 3.51 49.11 3.51C51.67 3.51 53.28 5.75 53.28 7.73C53.28 8.95 53.24 12.25 48.57 12.25C48.30 12.25 47.89 12.25 47.80 12.21C47.78 12.19 47.78 11.79 47.78 11.40ZM72.55 12.39C72.55 12.63 72.55 12.68 72.74 12.68C72.91 12.68 73.23 12.64 73.81 12.64C74.42 12.64 74.97 12.68 75.12 12.68C75.29 12.68 75.29 12.61 75.29 12.40C75.29 12.24 75.29 12.18 75.12 12.18L74.05 12.18C74.05 12.18 74.03 12.18 74.03 12.17C74.05 11.87 74.82 9.90 75.17 9.02C75.24 8.83 75.25 8.79 75.46 8.79L78.29 8.79C78.43 8.79 78.43 8.81 78.50 9.03C78.76 9.77 79.48 11.89 79.48 12.17C79.48 12.18 79.46 12.18 79.46 12.18L78.69 12.18C78.47 12.18 78.46 12.19 78.46 12.39C78.46 12.63 78.47 12.68 78.64 12.68C78.96 12.68 79.83 12.64 80.25 12.64C80.67 12.64 81.34 12.68 81.55 12.68C81.69 12.68 81.70 12.61 81.70 12.40C81.70 12.24 81.69 12.18 81.55 12.18L81.06 12.18C80.96 12.18 79.94 9.34 79.38 7.78L77.70 3.07C77.69 3.00 77.62 2.94 77.53 2.94C77.41 2.94 77.31 3.16 77.22 3.35C77.07 3.71 76.83 3.84 76.72 4.13L75.24 7.57C75.05 8.01 73.35 12.18 73.22 12.18L72.80 12.18C72.58 12.18 72.55 12.19 72.55 12.39ZM75.45 8.33C75.45 8.30 75.47 8.23 75.52 8.13L76.89 4.77C76.93 4.66 76.96 4.61 76.99 4.61C77 4.61 77.01 4.63 77.06 4.77L78.22 8.18C78.25 8.25 78.26 8.29 78.26 8.32C78.26 8.36 78.23 8.37 78.13 8.37L75.63 8.37C75.45 8.37 75.45 8.34 75.45 8.33ZM99.26 12.39C99.26 12.63 99.29 12.68 99.48 12.68C99.81 12.68 100.77 12.64 101.19 12.64C101.61 12.64 105.97 12.68 106.29 12.68C106.55 12.68 106.62 12.66 106.64 12.49C106.69 12.08 106.93 10.72 106.93 10.60C106.93 10.47 106.78 10.44 106.61 10.43C106.51 10.42 106.43 10.46 106.41 10.56L106.25 11.76C106.20 12.05 106.19 12.03 105.97 12.04C105.81 12.05 103.31 12.12 101.88 12.12C101.84 12.12 101.79 11.38 101.79 10.54L101.79 6.66C101.79 5.40 101.81 3.70 101.91 3.70L102.89 3.70C103.12 3.70 103.15 3.63 103.15 3.44C103.15 3.23 103.14 3.19 102.90 3.19C102.58 3.19 101.64 3.23 101.22 3.23C100.80 3.23 99.86 3.19 99.64 3.19C99.41 3.19 99.36 3.22 99.36 3.44C99.36 3.65 99.40 3.70 99.60 3.70L100.42 3.70C100.46 3.70 100.49 4.23 100.49 4.90L100.49 8.13C100.49 10.07 100.46 12.18 100.38 12.18L99.54 12.18C99.32 12.18 99.26 12.21 99.26 12.39ZM114.48 8.15C114.48 11.17 116.82 12.80 119.07 12.80C121.86 12.80 123.83 10.89 123.83 8.06C123.83 5.33 122.08 3.11 119.28 3.11C116.68 3.11 114.48 5.10 114.48 8.15ZM115.88 7.77C115.88 5.64 117.17 3.58 119.14 3.58C121.38 3.58 122.46 5.81 122.46 7.94C122.46 10.08 121.35 12.32 119.08 12.32C117.10 12.32 115.88 10.28 115.88 7.77ZM132.01 7.91C132.01 11.31 134.37 12.87 136.96 12.87C138.74 12.87 140.52 11.90 140.56 11.59C140.73 10.29 140.78 9.70 140.78 9.66C140.78 9.56 140.74 9.52 140.57 9.51C140.52 9.51 140.46 9.49 140.42 9.49C140.31 9.49 140.25 9.53 140.22 9.70L140.04 11.33C140.03 11.45 138.92 12.24 137.35 12.24C135.23 12.24 133.52 10.29 133.52 7.94C133.52 5.42 134.95 3.54 136.95 3.54C138.80 3.54 140.14 5.01 140.14 5.17C140.14 5.29 140.08 6.40 140.08 6.45C140.08 6.59 140.13 6.64 140.39 6.64C140.59 6.64 140.66 6.62 140.66 6.44C140.66 5.73 140.71 3.92 140.71 3.67C140.71 3.47 140.60 3.44 140.39 3.44C140.17 3.44 140.14 3.50 140.14 3.67L140.14 4.05C140.14 4.16 140.10 4.16 139.97 4.06C139.69 3.86 138.71 3.04 137.05 3.04C134.20 3.04 132.01 4.96 132.01 7.91ZM149.17 12.39C149.17 12.63 149.18 12.68 149.38 12.68C149.70 12.68 150.60 12.64 151.02 12.64C151.44 12.64 152.39 12.68 152.71 12.68C152.88 12.68 152.89 12.61 152.89 12.40C152.89 12.24 152.87 12.18 152.70 12.18L151.69 12.18C151.59 12.18 151.56 10.12 151.56 8.46C151.56 8.30 151.56 8.30 151.73 8.30L152.00 8.30C152.21 8.30 152.21 8.32 152.28 8.40L155.32 12.00C155.41 12.11 155.48 12.18 155.27 12.18L154.81 12.18C154.63 12.18 154.56 12.19 154.56 12.39C154.56 12.63 154.56 12.68 154.76 12.68C155.08 12.68 155.78 12.64 156.20 12.64C156.62 12.64 157.30 12.68 157.63 12.68C157.79 12.68 157.79 12.61 157.79 12.40C157.79 12.24 157.79 12.18 157.63 12.18L157.40 12.18C157.22 12.18 157.12 12.10 157.00 11.96L153.23 7.62C153.09 7.45 153.06 7.50 153.19 7.36C153.64 6.83 156.17 3.77 156.24 3.77L156.91 3.77C157.14 3.77 157.16 3.75 157.16 3.56C157.16 3.32 157.16 3.26 156.97 3.26C156.77 3.26 156.32 3.30 155.81 3.30C155.27 3.30 154.80 3.26 154.57 3.26C154.39 3.26 154.29 3.28 154.29 3.51C154.29 3.75 154.41 3.77 154.57 3.77L155.13 3.77C155.30 3.77 155.30 3.84 155.19 3.99C154.66 4.66 152.31 7.92 152.01 7.92L151.70 7.92C151.56 7.92 151.56 7.88 151.56 7.69L151.56 5.94C151.56 5.21 151.63 3.77 151.73 3.77L152.50 3.77C152.73 3.77 152.77 3.75 152.77 3.56C152.77 3.32 152.75 3.26 152.56 3.26C152.24 3.26 151.47 3.30 151.05 3.30C150.46 3.30 149.80 3.26 149.58 3.26C149.39 3.26 149.30 3.28 149.30 3.51C149.30 3.75 149.41 3.77 149.58 3.77L150.22 3.77C150.28 3.77 150.30 4.86 150.30 5.78L150.30 9.84C150.30 11.00 150.29 12.18 150.21 12.18L149.46 12.18C149.24 12.18 149.17 12.19 149.17 12.39ZM165.27 12.39C165.27 12.63 165.30 12.68 165.49 12.68C165.82 12.68 166.78 12.64 167.20 12.64C167.62 12.64 172.13 12.68 172.45 12.68C172.58 12.68 172.73 12.66 172.73 12.49C172.73 12.07 172.77 11.23 172.77 10.53C172.77 10.39 172.62 10.39 172.49 10.39C172.38 10.39 172.26 10.39 172.26 10.51C172.24 11.06 172.24 11.41 172.21 11.76C172.19 12.01 172.19 12.04 172.09 12.04C171.93 12.04 169.30 12.08 167.80 12.08C167.73 12.08 167.69 10.11 167.65 8.26C167.65 8.06 167.69 8.09 167.83 8.09L170.11 8.09C170.81 8.09 170.84 8.20 170.84 8.30L170.84 9.00C170.84 9.14 171.02 9.14 171.14 9.14C171.23 9.14 171.36 9.13 171.36 9.02C171.36 8.83 171.33 8.33 171.33 7.83C171.33 7.32 171.36 6.83 171.36 6.71C171.36 6.59 171.22 6.58 171.12 6.58C171.01 6.58 170.84 6.59 170.84 6.72L170.84 7.45C170.84 7.62 170.39 7.63 170.11 7.63L167.78 7.63C167.66 7.63 167.65 7.63 167.65 7.45C167.64 6.75 167.62 6.06 167.62 5.46C167.62 5.12 167.62 3.71 167.71 3.71C168.94 3.71 171.44 3.75 171.44 3.81C171.44 3.99 171.40 4.83 171.40 4.89C171.40 5.04 171.47 5.10 171.65 5.10C171.85 5.10 171.92 5.08 171.92 4.94C171.92 3.85 171.98 3.36 171.98 3.09C171.98 2.91 171.89 2.90 171.70 2.90C171.50 2.90 171.50 2.95 171.47 3.11C171.46 3.25 171.53 3.25 170.62 3.25C170.00 3.25 167.86 3.29 167.09 3.29C166.60 3.29 165.66 3.25 165.56 3.25C165.44 3.25 165.38 3.30 165.38 3.49C165.38 3.72 165.45 3.74 165.62 3.74L166.28 3.74C166.33 3.74 166.40 4.79 166.40 5.71C166.40 5.80 166.46 8.27 166.46 9.83L166.46 11.17C166.46 11.84 166.43 12.18 166.40 12.18L165.55 12.18C165.33 12.18 165.27 12.21 165.27 12.39ZM180.74 3.51C180.74 3.72 180.81 3.79 181.01 3.79L181.82 3.77C181.92 3.77 181.96 6.61 181.96 8.55L181.96 10.42C181.96 11.30 181.94 12.18 181.90 12.18L181.30 12.18C181.08 12.18 181.01 12.19 181.01 12.39C181.01 12.63 181.05 12.68 181.24 12.68C181.37 12.68 182.20 12.64 182.62 12.64C183.04 12.64 183.81 12.68 184.13 12.68C184.30 12.68 184.32 12.61 184.32 12.40C184.32 12.24 184.30 12.18 184.13 12.18L183.32 12.18C183.25 12.18 183.16 9.18 183.16 8.37C183.16 8.30 183.16 8.26 183.27 8.26C183.67 8.26 184.27 8.27 184.56 8.27C186.80 8.32 186.94 10.00 186.94 11.68L186.94 12.49C186.94 12.61 187.00 12.64 187.10 12.64C187.10 12.64 188.54 12.68 189.01 12.68C189.18 12.68 189.24 12.64 189.24 12.53C189.24 12.24 189.18 12.18 189.03 12.18L188.38 12.18C188.29 12.18 188.26 12.14 188.23 11.31C188.15 8.99 186.77 8.34 185.86 8.05C185.72 8.01 185.75 8.01 185.86 7.95C186.45 7.69 187.77 6.94 187.77 5.63C187.77 3.63 186.07 3.21 184.67 3.21C184.35 3.21 183.06 3.29 182.64 3.29C182.22 3.29 181.24 3.26 181.02 3.26C180.84 3.26 180.74 3.28 180.74 3.51ZM183.16 7.80L183.16 4.40C183.16 4.05 183.19 3.68 183.23 3.68C183.44 3.65 183.72 3.65 183.95 3.65C185.25 3.65 186.49 4.47 186.49 5.82C186.49 6.99 185.95 7.57 185.29 7.88C185.25 7.90 185.21 7.90 185.14 7.90C184.66 7.88 183.95 7.88 183.34 7.87C183.18 7.87 183.16 7.85 183.16 7.80Z"></path></g></svg>