<svg data-v-fde0c5aa="" xmlns="http://www.w3.org/2000/svg" viewBox="0 0 300 300" class="font"><!----><defs data-v-fde0c5aa=""><!----></defs><rect data-v-fde0c5aa="" fill="#EBFBFA" x="0" y="0" width="300px" height="300px" class="logo-background-square"></rect><defs data-v-fde0c5aa=""><linearGradient data-v-fde0c5aa="" gradientTransform="rotate(25)" id="65944466-5719-4466-8b8a-ad45c671f7c3" x1="0%" y1="0%" x2="100%" y2="0%"><stop data-v-fde0c5aa="" offset="0%" stop-color="#41E296" stop-opacity="1"></stop><stop data-v-fde0c5aa="" offset="100%" stop-color="#00C4EE" stop-opacity="1"></stop></linearGradient></defs><g data-v-fde0c5aa="" id="e8722ffa-6465-4957-af3f-62b91d9d394e" fill="url(#65944466-5719-4466-8b8a-ad45c671f7c3)" transform="matrix(1.6506602764129639,0,0,1.6506602764129639,37.73859540959225,132.96518563505438)"><path d="M1.37 13.65L2.59 13.65L2.59 10.30L3.79 10.30C6.31 10.30 7.35 9.09 7.35 7.25C7.35 5.63 6.45 4.40 3.99 4.40L1.37 4.40ZM3.91 5.43C5.42 5.43 6.03 6.08 6.03 7.35C6.03 8.69 5.29 9.27 3.78 9.27L2.59 9.27L2.59 5.43ZM13.20 13.65L14.32 13.65L14.32 9.00C14.32 7.63 13.47 7.03 12.38 7.03C10.96 7.03 10.33 7.92 10.11 8.40L10.11 3.60L8.99 3.60L8.99 13.65L10.11 13.65L10.11 10.22C10.23 9.65 10.75 7.99 12.19 7.99C12.87 7.99 13.20 8.36 13.20 9.32ZM19.03 13.85C21.11 13.85 21.99 12.32 21.99 10.33C21.99 8.25 21 7.03 19.03 7.03C16.98 7.03 16.03 8.44 16.03 10.33C16.03 12.47 16.91 13.85 19.03 13.85ZM19.03 12.92C17.86 12.92 17.23 12.08 17.23 10.47C17.23 8.88 17.86 7.95 19.03 7.95C20.17 7.95 20.79 8.85 20.79 10.47C20.79 11.96 20.17 12.92 19.03 12.92ZM23.76 13.65L24.88 13.65L24.88 10.22C25.00 9.65 25.52 7.99 26.96 7.99C27.64 7.99 27.97 8.36 27.97 9.32L27.97 13.65L29.09 13.65L29.09 9.00C29.09 7.63 28.24 7.03 27.15 7.03C25.63 7.03 25.03 8.06 24.84 8.50L24.84 7.22L23.76 7.22ZM36.37 10.61L36.37 9.91C36.37 7.95 35.46 7.03 33.77 7.03C31.53 7.03 30.80 8.75 30.80 10.47C30.80 12.78 31.89 13.85 33.80 13.85C35.21 13.85 36.05 13.16 36.37 12.01L35.39 11.82C35.21 12.40 34.66 12.92 33.82 12.92C32.35 12.92 32.02 11.80 32.00 10.61ZM33.74 7.95C34.75 7.95 35.21 8.61 35.21 9.46L35.21 9.72L32.05 9.72C32.21 8.50 32.84 7.95 33.74 7.95ZM41.76 13.65L47.26 13.65L47.26 12.60L42.98 12.60L42.98 4.40L41.76 4.40ZM51.16 13.85C53.24 13.85 54.12 12.32 54.12 10.33C54.12 8.25 53.13 7.03 51.16 7.03C49.11 7.03 48.16 8.44 48.16 10.33C48.16 12.47 49.04 13.85 51.16 13.85ZM51.16 12.92C49.99 12.92 49.36 12.08 49.36 10.47C49.36 8.88 49.99 7.95 51.16 7.95C52.30 7.95 52.92 8.85 52.92 10.47C52.92 11.96 52.30 12.92 51.16 12.92ZM59.84 11.82C59.70 12.43 59.16 12.92 58.30 12.92C57.40 12.92 56.70 12.24 56.70 10.44C56.70 9.17 57.08 7.95 58.37 7.95C59.16 7.95 59.74 8.22 59.67 9.24L60.79 9.04C60.93 7.73 59.88 7.03 58.37 7.03C56.85 7.03 55.50 7.87 55.50 10.42C55.50 12.57 56.48 13.85 58.28 13.85C59.74 13.85 60.51 13.13 60.83 12.01ZM66.36 13.65L67.80 13.65L64.93 10.12L67.84 7.22L66.40 7.22L63.90 9.72L63.62 9.72L63.62 3.60L62.50 3.60L62.50 13.65L63.62 13.65L63.62 10.61L63.92 10.61ZM74.12 10.61L74.12 9.91C74.12 7.95 73.21 7.03 71.51 7.03C69.27 7.03 68.54 8.75 68.54 10.47C68.54 12.78 69.64 13.85 71.54 13.85C72.95 13.85 73.79 13.16 74.12 12.01L73.14 11.82C72.95 12.40 72.41 12.92 71.57 12.92C70.10 12.92 69.76 11.80 69.75 10.61ZM71.48 7.95C72.49 7.95 72.95 8.61 72.95 9.46L72.95 9.72L69.79 9.72C69.96 8.50 70.59 7.95 71.48 7.95ZM75.89 13.65L77.01 13.65L77.01 10.37C77.18 9.41 77.64 8.08 78.60 8.08C79.00 8.08 79.24 8.48 79.24 8.48L79.86 7.60C79.86 7.60 79.53 7.03 78.81 7.03C77.78 7.03 77.20 7.85 76.97 8.47L76.97 7.22L75.89 7.22ZM84.39 13.65L85.54 13.65L85.54 7.46C85.54 6.94 85.51 6.23 85.48 5.80C85.64 6.33 85.83 6.97 85.99 7.35L88.51 13.65L89.53 13.65L91.95 7.42L92.58 5.71C92.55 6.15 92.53 6.94 92.53 7.50L92.53 13.65L93.67 13.65L93.67 4.40L91.98 4.40L89.39 11.05C89.24 11.41 89.11 11.76 89.01 12.04C88.93 11.76 88.80 11.40 88.66 11.05L85.99 4.40L84.39 4.40ZM101.21 13.75L101.43 12.77C100.58 12.92 100.63 12.42 100.63 11.91L100.63 9.37C100.63 7.74 99.96 7.03 98.31 7.03C96.45 7.03 95.59 7.81 95.75 9.04L96.85 9.24C96.78 8.29 97.36 7.95 98.22 7.95C99.22 7.95 99.51 8.41 99.51 9.52L99.51 9.88C97.09 9.90 95.52 10.64 95.52 12.11C95.52 13.29 96.52 13.85 97.55 13.85C98.56 13.85 99.32 13.29 99.62 12.71C99.67 13.30 99.99 13.90 101.21 13.75ZM99.51 11.42C99.46 12.25 98.62 12.92 97.76 12.92C97.10 12.92 96.73 12.57 96.73 12.03C96.73 11.20 97.54 10.75 99.51 10.74ZM102.87 16.84L103.99 16.84L103.99 12.96C104.37 13.50 105.06 13.85 105.87 13.85C107.74 13.85 108.71 12.24 108.71 10.23C108.71 8.62 108.12 7.03 106.12 7.03C105.13 7.03 104.38 7.49 103.95 8.15L103.95 7.22L102.87 7.22ZM105.77 12.92C104.41 12.92 103.99 11.59 103.99 10.50C103.99 9.39 104.40 7.95 105.88 7.95C107.16 7.95 107.51 8.89 107.51 10.32C107.51 11.63 107.21 12.92 105.77 12.92ZM110.47 16.84L111.59 16.84L111.59 12.96C111.97 13.50 112.66 13.85 113.47 13.85C115.35 13.85 116.31 12.24 116.31 10.23C116.31 8.62 115.72 7.03 113.72 7.03C112.73 7.03 111.99 7.49 111.55 8.15L111.55 7.22L110.47 7.22ZM113.37 12.92C112.01 12.92 111.59 11.59 111.59 10.50C111.59 9.39 112.00 7.95 113.48 7.95C114.76 7.95 115.11 8.89 115.11 10.32C115.11 11.63 114.81 12.92 113.37 12.92ZM117.87 5.00C117.87 5.43 118.19 5.75 118.62 5.75C119.04 5.75 119.38 5.43 119.38 5.00C119.38 4.58 119.04 4.24 118.62 4.24C118.19 4.24 117.87 4.58 117.87 5.00ZM118.08 13.65L119.20 13.65L119.20 7.22L118.08 7.22ZM121.35 13.65L122.47 13.65L122.47 10.22C122.60 9.65 123.12 7.99 124.56 7.99C125.23 7.99 125.57 8.36 125.57 9.32L125.57 13.65L126.69 13.65L126.69 9.00C126.69 7.63 125.83 7.03 124.74 7.03C123.23 7.03 122.63 8.06 122.43 8.50L122.43 7.22L121.35 7.22ZM128.80 9.48C128.80 10.15 128.98 10.70 129.33 11.09C128.81 11.45 128.48 11.87 128.48 12.52C128.48 13.29 128.95 13.58 129.50 13.78C129.11 14.04 128.48 14.56 128.48 15.37C128.48 16.76 130.30 17.04 131.46 17.04C133.20 17.04 134.55 16.41 134.55 14.88C134.55 13.27 133.03 13.09 131.66 13.01C130.52 12.94 129.49 12.92 129.49 12.25C129.49 11.96 129.67 11.75 129.95 11.55C130.33 11.73 130.79 11.83 131.33 11.83C132.96 11.83 133.95 10.98 133.95 9.42C133.95 8.97 133.87 8.58 133.70 8.25C134.34 7.94 134.65 7.43 134.65 6.80C134.65 6.66 134.64 6.51 134.60 6.34L133.63 6.20L133.63 6.69C133.63 7.04 133.53 7.39 133.27 7.67C132.82 7.25 132.19 7.03 131.39 7.03C129.70 7.03 128.80 8.01 128.80 9.48ZM131.35 10.98C130.38 10.98 130.00 10.42 130.00 9.45C130.00 8.46 130.41 7.88 131.38 7.88C132.33 7.88 132.75 8.44 132.75 9.42C132.75 10.42 132.33 10.98 131.35 10.98ZM131.50 14.06C132.59 14.13 133.50 14.28 133.50 15.05C133.50 15.85 132.57 16.14 131.45 16.14C130.61 16.14 129.49 15.97 129.49 15.16C129.49 14.60 129.99 14.24 130.44 13.99C130.84 14.03 131.04 14.03 131.50 14.06Z"></path></g><!----><!----></svg>