<?xml version="1.0" standalone="no"?>
<!DOCTYPE svg PUBLIC "-//W3C//DTD SVG 20010904//EN"
 "http://www.w3.org/TR/2001/REC-SVG-20010904/DTD/svg10.dtd">
<svg version="1.0" xmlns="http://www.w3.org/2000/svg"
 width="700.000000pt" height="700.000000pt" viewBox="0 0 700.000000 700.000000"
 preserveAspectRatio="xMidYMid meet">
<metadata>
Created by potrace 1.14, written by Peter Selinger 2001-2017
</metadata>
<g transform="translate(0.000000,700.000000) scale(0.100000,-0.100000)"
fill="#000000" stroke="none">
<path d="M2360 3785 c0 -117 3 -145 14 -145 10 0 15 18 18 60 5 66 28 103 62
98 19 -3 21 -11 24 -80 3 -70 5 -78 22 -78 18 0 20 7 20 73 0 85 -16 117 -58
117 -15 0 -38 -7 -50 -16 l-22 -15 0 65 c0 52 -3 66 -15 66 -13 0 -15 -23 -15
-145z"/>
<path d="M3940 3785 c0 -122 2 -145 15 -145 11 0 15 11 15 40 0 22 4 40 8 40
5 0 21 -18 38 -40 19 -26 37 -40 52 -40 23 0 22 3 -17 48 l-40 48 42 42 c39
40 40 42 17 42 -14 0 -39 -15 -62 -37 l-38 -37 0 92 c0 75 -3 92 -15 92 -13 0
-15 -23 -15 -145z"/>
<path d="M2140 3775 c0 -113 2 -135 15 -135 11 0 15 12 15 44 l0 43 47 7 c60
8 93 38 93 83 0 19 -4 43 -10 53 -12 23 -61 40 -116 40 l-44 0 0 -135z m104
95 c21 -8 26 -16 26 -44 0 -40 -18 -57 -62 -59 l-33 -2 -3 58 c-3 55 -2 57 22
57 14 0 36 -4 50 -10z"/>
<path d="M3330 3775 l0 -135 80 0 c64 0 80 3 80 15 0 12 -14 15 -65 15 l-65 0
0 120 c0 100 -2 120 -15 120 -13 0 -15 -22 -15 -135z"/>
<path d="M4587 3904 c-4 -4 -7 -65 -7 -136 0 -121 1 -128 20 -128 19 0 20 7
21 103 l0 102 41 -102 c54 -134 64 -135 113 -5 21 53 40 100 44 104 3 4 5 -40
3 -97 -3 -100 -2 -105 17 -105 20 0 21 5 21 136 l0 135 -26 -3 c-24 -3 -31
-15 -70 -113 -33 -86 -44 -106 -50 -90 -47 124 -85 200 -101 203 -10 2 -22 0
-26 -4z"/>
<path d="M5575 3900 c-4 -7 -3 -16 3 -22 14 -14 45 -2 40 15 -6 16 -34 21 -43
7z"/>
<path d="M6035 3831 c-5 -17 -10 -18 -35 -8 -61 23 -122 -30 -100 -87 6 -16 6
-27 0 -31 -14 -9 -12 -63 2 -67 8 -3 6 -12 -5 -29 -15 -23 -15 -27 -1 -47 13
-18 25 -22 73 -22 65 0 91 18 91 64 0 31 -20 41 -92 51 -61 8 -68 35 -9 35 53
0 84 27 84 71 0 19 6 43 13 54 18 25 18 35 0 35 -8 0 -17 -9 -21 -19z m-27
-68 c2 -24 -2 -34 -17 -43 -31 -16 -61 3 -61 39 0 36 8 43 45 39 26 -3 30 -8
33 -35z m17 -168 c0 -12 -10 -23 -26 -29 -36 -12 -79 0 -79 23 0 27 10 32 60
29 37 -2 45 -6 45 -23z"/>
<path d="M2593 3804 c-23 -23 -25 -31 -21 -81 6 -66 30 -93 85 -93 53 0 83 36
83 100 0 41 -5 56 -25 75 -33 34 -87 34 -122 -1z m101 -26 c32 -45 8 -118 -38
-118 -32 0 -51 25 -51 70 0 21 7 45 14 54 19 23 57 20 75 -6z"/>
<path d="M2852 3814 c-12 -8 -22 -10 -22 -5 0 6 -7 11 -15 11 -12 0 -15 -17
-15 -90 0 -73 3 -90 15 -90 11 0 15 12 15 50 0 61 16 99 46 106 37 9 44 -3 44
-82 0 -59 3 -74 15 -74 12 0 15 16 15 85 0 73 -3 86 -19 95 -28 14 -53 13 -79
-6z"/>
<path d="M3047 3819 c-28 -16 -49 -74 -41 -115 13 -69 98 -98 143 -50 26 28
10 48 -18 22 -24 -22 -68 -20 -81 3 -18 34 -11 40 53 43 59 3 62 4 65 30 7 56
-69 97 -121 67z m81 -46 c3 -21 -1 -23 -42 -23 -50 0 -51 1 -35 31 15 29 73
23 77 -8z"/>
<path d="M3545 3805 c-20 -19 -25 -34 -25 -75 0 -41 5 -56 25 -75 24 -25 65
-32 100 -19 24 10 45 58 45 104 0 81 -89 121 -145 65z m96 -21 c7 -9 14 -33
14 -54 0 -21 -7 -45 -14 -54 -32 -38 -91 -3 -91 54 0 57 59 92 91 54z"/>
<path d="M3763 3808 c-41 -45 -42 -120 -1 -158 29 -27 82 -26 109 1 27 27 10
52 -19 26 -41 -38 -82 -11 -82 53 0 47 16 70 50 70 20 0 30 -5 30 -15 0 -8 9
-15 20 -15 27 0 25 25 -2 44 -33 23 -81 20 -105 -6z"/>
<path d="M4145 3805 c-20 -19 -25 -34 -25 -75 0 -64 30 -100 85 -100 41 0 84
35 66 53 -7 7 -16 6 -29 -6 -26 -23 -58 -21 -76 5 -9 12 -16 26 -16 30 0 5 29
8 65 8 l65 0 0 35 c0 71 -83 102 -135 50z m95 -24 c15 -30 14 -31 -35 -31 -30
0 -45 4 -45 13 0 37 62 51 80 18z"/>
<path d="M4392 3821 c-7 -4 -24 -6 -38 -3 l-24 4 0 -91 c0 -84 1 -91 20 -91
18 0 20 7 20 58 0 66 21 106 50 97 17 -5 35 17 23 29 -9 9 -36 7 -51 -3z"/>
<path d="M4942 3814 c-12 -8 -22 -22 -22 -30 0 -19 26 -18 34 2 9 24 70 15 74
-12 3 -18 -5 -23 -41 -32 -24 -6 -52 -21 -62 -32 -18 -20 -18 -24 -4 -48 18
-32 60 -40 94 -18 20 13 24 13 29 1 3 -8 12 -15 20 -15 19 0 28 27 10 34 -10
4 -14 23 -14 70 0 45 -5 69 -16 80 -20 20 -73 20 -102 0z m88 -112 c0 -25 -19
-42 -47 -42 -31 0 -42 29 -18 46 28 20 65 18 65 -4z"/>
<path d="M5182 3814 c-12 -8 -22 -10 -22 -5 0 6 -7 11 -15 11 -13 0 -15 -22
-15 -140 0 -118 2 -140 15 -140 11 0 15 13 15 54 l0 54 28 -10 c64 -24 112 20
112 102 0 72 -64 112 -118 74z m74 -26 c12 -19 8 -96 -6 -112 -19 -24 -57 -20
-76 9 -17 27 -14 76 7 102 14 16 65 17 75 1z"/>
<path d="M5412 3821 c-7 -4 -24 -6 -38 -3 l-24 4 0 -141 c0 -134 1 -141 20
-141 18 0 20 7 20 57 0 44 3 54 12 45 17 -17 59 -15 85 3 47 33 49 150 3 175
-23 12 -60 13 -78 1z m68 -40 c5 -11 10 -34 10 -51 0 -47 -16 -70 -50 -70 -34
0 -50 23 -50 70 0 47 16 70 50 70 19 0 33 -7 40 -19z"/>
<path d="M5732 3814 c-12 -8 -22 -10 -22 -5 0 6 -9 11 -20 11 -19 0 -20 -7
-20 -90 0 -83 1 -90 20 -90 18 0 20 7 20 58 0 71 20 105 58 100 26 -3 27 -5
30 -80 2 -60 6 -78 17 -78 22 0 21 152 -1 174 -20 20 -53 20 -82 0z"/>
<path d="M5580 3730 c0 -73 3 -90 15 -90 12 0 15 17 15 90 0 73 -3 90 -15 90
-12 0 -15 -17 -15 -90z"/>
<path d="M2200 3290 c-36 -4 -59 -7 -52 -8 8 -1 12 -26 12 -86 0 -58 -4 -86
-12 -89 -7 -3 5 -5 27 -5 22 0 32 2 23 5 -13 3 -18 15 -18 44 0 38 1 39 34 39
19 0 37 -6 39 -12 3 -7 6 1 6 17 0 20 -2 26 -8 17 -5 -8 -21 -12 -37 -10 -26
3 -29 7 -32 41 l-3 37 40 0 c23 0 41 -4 41 -10 0 -5 5 -10 10 -10 6 0 10 9 10
20 0 11 -3 19 -7 18 -5 -1 -37 -4 -73 -8z"/>
<path d="M2453 3289 c14 -8 17 -25 17 -94 0 -71 -3 -84 -17 -88 -10 -3 2 -5
27 -6 35 0 41 2 28 10 -15 8 -18 24 -18 89 0 65 3 81 18 89 13 8 7 10 -28 10
-35 0 -41 -2 -27 -10z"/>
<path d="M2698 3288 c17 -17 16 -175 0 -181 -7 -3 3 -5 22 -5 19 0 27 2 18 5
-15 4 -18 17 -18 84 0 43 2 79 4 79 2 0 35 -38 72 -85 38 -47 72 -85 77 -85 4
0 7 40 7 88 0 55 4 92 12 100 9 9 4 12 -22 12 -30 0 -32 -1 -16 -13 14 -10 16
-25 14 -77 l-3 -65 -64 78 c-49 59 -70 77 -89 77 -20 0 -23 -3 -14 -12z"/>
<path d="M3088 3209 c3 -68 0 -94 -10 -100 -24 -16 112 -10 142 6 66 34 57
141 -14 170 -20 8 -55 15 -78 15 l-43 0 3 -91z m101 66 c33 -17 41 -33 41 -83
0 -48 -32 -82 -77 -82 l-33 0 0 90 c0 84 1 90 20 90 12 0 34 -7 49 -15z"/>
<path d="M3701 3223 c-18 -43 -39 -88 -47 -100 -14 -22 -13 -23 13 -23 18 0
23 3 15 8 -9 6 -10 16 -1 40 9 27 16 32 44 32 28 0 35 -5 44 -32 9 -24 8 -34
-1 -40 -8 -4 3 -8 27 -8 24 0 35 4 27 8 -6 5 -26 46 -43 93 -17 46 -34 88 -38
92 -4 4 -22 -27 -40 -70z m44 -5 c7 -25 5 -28 -20 -28 -22 0 -26 3 -20 18 4 9
10 25 12 35 7 23 19 11 28 -25z"/>
<path d="M4208 3288 c7 -7 12 -44 12 -94 0 -70 -3 -83 -17 -87 -10 -3 19 -5
65 -6 79 -1 82 0 81 22 -1 16 -2 18 -6 5 -3 -14 -15 -18 -49 -18 l-44 0 0 89
c0 62 4 91 13 94 6 3 -6 6 -27 6 -31 1 -37 -2 -28 -11z"/>
<path d="M4574 3291 c-63 -27 -82 -108 -38 -160 22 -26 33 -31 70 -31 62 0 94
32 94 94 0 74 -64 123 -126 97z m72 -24 c51 -44 27 -157 -34 -157 -33 0 -45 8
-61 37 -19 38 -14 91 14 118 30 31 47 31 81 2z"/>
<path d="M4933 3290 c-51 -21 -72 -105 -39 -155 32 -49 147 -51 159 -3 8 28 0
37 -10 12 -9 -26 -23 -34 -60 -34 -67 0 -100 104 -48 155 13 14 32 25 42 25
25 0 63 -28 63 -46 0 -8 5 -14 10 -14 6 0 10 13 10 29 0 21 -5 30 -17 30 -10
1 -34 3 -53 6 -19 2 -45 0 -57 -5z"/>
<path d="M5630 3290 c-36 -4 -59 -7 -52 -8 8 -1 12 -26 12 -86 0 -58 -4 -86
-12 -89 -7 -3 22 -6 65 -6 74 -1 77 0 76 22 -1 16 -2 18 -6 5 -3 -14 -15 -18
-49 -18 l-44 0 0 41 c0 41 0 41 35 37 30 -3 35 -1 34 17 0 11 -3 14 -6 8 -2
-7 -18 -13 -34 -13 -27 0 -29 2 -29 40 0 40 0 40 39 40 22 0 42 -5 44 -12 3
-7 6 -3 6 10 1 12 -2 21 -6 20 -5 -1 -37 -4 -73 -8z"/>
<path d="M5983 3279 c42 -32 31 -79 -20 -79 -21 0 -23 5 -23 45 0 42 -2 45
-27 45 -19 0 -24 -3 -15 -9 10 -6 13 -31 10 -95 l-3 -86 30 1 c17 0 24 3 18 6
-8 2 -13 22 -13 44 0 35 3 39 24 39 33 0 56 -25 56 -61 0 -25 4 -29 26 -29 23
0 24 1 10 16 -9 8 -16 24 -16 35 0 10 -9 24 -19 31 -19 11 -19 13 -1 35 10 13
16 32 13 43 -6 24 -8 25 -48 34 l-30 6 28 -21z"/>
<path d="M5248 3278 c7 -7 12 -41 12 -85 0 -58 -3 -74 -17 -82 -14 -8 -8 -10
27 -10 25 1 37 3 28 6 -13 3 -18 15 -18 44 0 21 4 39 9 39 11 0 67 -72 63 -82
-1 -5 11 -8 28 -8 l29 0 -44 48 c-25 26 -45 52 -45 58 0 5 15 27 34 47 33 37
33 37 9 37 -13 0 -21 -4 -18 -10 7 -11 -42 -80 -56 -80 -14 0 -11 78 4 83 6 3
-4 6 -22 6 -27 1 -32 -2 -23 -11z"/>
</g>
</svg>
